<?xml version="1.0" encoding="UTF-8" standalone="no"?>
<!-- Created with Inkscape (http://www.inkscape.org/) -->

<svg
   width="207.13298mm"
   height="197.49954mm"
   viewBox="0 0 207.13298 197.49954"
   version="1.1"
   id="svg1"
   xml:space="preserve"
   inkscape:version="1.3 (0e150ed, 2023-07-21)"
   sodipodi:docname="htc-logopr.svg"
   xmlns:inkscape="http://www.inkscape.org/namespaces/inkscape"
   xmlns:sodipodi="http://sodipodi.sourceforge.net/DTD/sodipodi-0.dtd"
   xmlns="http://www.w3.org/2000/svg"
   xmlns:svg="http://www.w3.org/2000/svg"><sodipodi:namedview
     id="namedview1"
     pagecolor="#ffffff"
     bordercolor="#000000"
     borderopacity="0.25"
     inkscape:showpageshadow="2"
     inkscape:pageopacity="0.0"
     inkscape:pagecheckerboard="0"
     inkscape:deskcolor="#d1d1d1"
     inkscape:document-units="mm"
     inkscape:zoom="0.29581676"
     inkscape:cx="481.71713"
     inkscape:cy="353.25923"
     inkscape:window-width="1280"
     inkscape:window-height="716"
     inkscape:window-x="0"
     inkscape:window-y="0"
     inkscape:window-maximized="1"
     inkscape:current-layer="layer1" /><defs
     id="defs1" /><g
     inkscape:label="Layer 1"
     inkscape:groupmode="layer"
     id="layer1"
     transform="translate(-2.2411137,-50.983427)"><rect
       style="fill:#010101;fill-opacity:0.969754;stroke:#000000;stroke-width:6.12798;stroke-miterlimit:25.1;stroke-opacity:1"
       id="rect1-8"
       width="201.005"
       height="191.37157"
       x="5.3051038"
       y="54.047417"
       ry="95.685783" /><text
       xml:space="preserve"
       style="font-style:normal;font-variant:normal;font-weight:bold;font-stretch:normal;font-size:29.2641px;font-family:Futura;-inkscape-font-specification:'Futura Bold';fill:#ffffff;fill-opacity:1;stroke-width:37.5568;stroke-miterlimit:25.1"
       x="43.053055"
       y="188.1563"
       id="text3-9-6"
       transform="scale(1.0749296,0.93029348)"><tspan
         sodipodi:role="line"
         id="tspan3-0-4"
         style="font-style:normal;font-variant:normal;font-weight:bold;font-stretch:normal;font-family:Futura;-inkscape-font-specification:'Futura Bold';stroke-width:37.557"
         x="43.053055"
         y="188.1563">Haremic</tspan></text><text
       xml:space="preserve"
       style="font-style:normal;font-variant:normal;font-weight:bold;font-stretch:normal;font-size:29.134px;font-family:Futura;-inkscape-font-specification:'Futura Bold';fill:#ffffff;fill-opacity:1;stroke-width:37.3898;stroke-miterlimit:25.1"
       x="44.855202"
       y="211.01237"
       id="text3-9-6-9"
       transform="scale(1.0701491,0.93444922)"><tspan
         sodipodi:role="line"
         id="tspan3-0-4-7"
         style="font-style:normal;font-variant:normal;font-weight:bold;font-stretch:normal;font-family:Futura;-inkscape-font-specification:'Futura Bold';stroke-width:37.3901"
         x="44.855202"
         y="211.01237">Travel</tspan></text><text
       xml:space="preserve"
       style="font-style:normal;font-variant:normal;font-weight:bold;font-stretch:normal;font-size:29.2641px;font-family:Futura;-inkscape-font-specification:'Futura Bold';fill:#ffffff;fill-opacity:1;stroke-width:37.5568;stroke-miterlimit:25.1"
       x="36.89323"
       y="235.73204"
       id="text3-9-6-9-7"
       transform="scale(1.0749296,0.93029348)"><tspan
         sodipodi:role="line"
         id="tspan3-0-4-7-1"
         style="font-style:normal;font-variant:normal;font-weight:bold;font-stretch:normal;font-family:Futura;-inkscape-font-specification:'Futura Bold';stroke-width:37.557"
         x="36.89323"
         y="235.73204">Consult</tspan></text><g
       style="fill:#ffffff"
       id="g6"
       transform="matrix(2.0847703,0,0,1.9785053,56.957121,61.243468)"><g
         id="g5"
         style="fill:#ffffff">&#10;	<g
   id="g4"
   style="fill:#ffffff">&#10;		<path
   d="m 7.746,32.708 c -1.244,-2.01 -2.152,-5.084 -2.152,-8.371 0,-9.856 8.019,-17.875 17.873,-17.875 2.029,0 3.975,0.357 5.793,0.982 L 27.09,4.809 C 25.913,4.59 24.705,4.461 23.467,4.461 c -10.958,0 -19.873,8.916 -19.873,19.875 0,3.659 1.013,7.08 2.434,9.387 z"
   id="path1-3"
   style="fill:#ffffff" />&#10;		<path
   d="m 40.784,19.93 c 0.359,1.41 0.557,2.885 0.557,4.407 0,9.854 -8.019,17.873 -17.874,17.873 -4.185,0 -8.027,-1.453 -11.071,-3.875 l -1.77,1.127 c 3.463,2.955 7.941,4.748 12.841,4.748 10.959,0 19.874,-8.916 19.874,-19.873 0,-0.726 -0.051,-1.437 -0.127,-2.14 z"
   id="path2"
   style="fill:#ffffff" />&#10;		<path
   d="m 46.157,18.898 c -0.248,-1.183 -5.137,-8.079 -5.137,-8.079 0,0 4.153,-4.012 4.428,-4.488 C 45.721,5.855 46.773,4.788 45.432,3.685 44.09,2.584 43.129,3.296 42.654,3.721 42.177,4.148 38.61,7.343 38.61,7.343 c 0,0 -7.241,-5.272 -8.437,-5.365 C 28.978,1.884 28.18,2.953 28.18,2.953 l 7.366,7.427 -3.61,4.259 -3.225,-0.941 -1.783,1.098 c 0,0 3.539,1.543 4.239,2.432 0.701,0.889 1.625,3.84 1.625,3.84 l 1.699,-0.895 -0.793,-3.885 4.098,-3.262 7.025,7.704 c 0.002,0 1.584,-0.649 1.336,-1.832 z"
   id="path3"
   style="fill:#ffffff" />&#10;		<path
   d="M 29.617,18.401 C 28.951,17.776 27.888,17.383 27.888,17.383 19.088,25.935 8.106,35.353 5.717,35.656 4.81,35.721 4.238,35.51 4.012,35.022 3.757,34.465 3.45,34.105 4.099,33.453 L 2.243,29.316 c -1.772,1.782 -2.859,5.212 -1.863,7.377 0.868,1.888 2.735,2.974 5.062,2.974 0.188,0 0.381,-0.008 0.574,-0.021 4.728,-0.352 20.071,-14.934 24.662,-19.393 -0.001,-0.001 -0.395,-1.227 -1.061,-1.852 z"
   id="path4"
   style="fill:#ffffff" />&#10;	</g>&#10;</g></g></g><style
     type="text/css"
     id="style1">&#10;	.st0{fill:#000000;}&#10;</style><style
     type="text/css"
     id="style1-3">.st0{fill-rule:evenodd;clip-rule:evenodd;}</style></svg>
